# xmcd
#
# Track frame offsets:
#	180
#	13451
#	31200
#	44333
#	62234
#	84998
#	100230
#	118903
#	132731
#	156706
#	169605
#	185818
#	206783
#	224009
#	245084
#	262445
#	273220
#
# Disc length: 3654 seconds
#
# Revision: 4
# Processed by: cddbd v1.5.1PL2 Copyright (c) Steve Scherf et al.
# Submitted via: EasyCDDAExtractor 9.0.0.1
#
DISCID=1a0e4411
DTITLE=Tom Morrell and The Time-Warp Tophands - How The West Was Swung, Vol.8 (O
DTITLE=n The Money)
DYEAR=1900
DGENRE=Swing
TTITLE0=I'm Gonna Be Boss From Now On
TTITLE1=The One I Love Belongs To Somebody Else
TTITLE2=Texas Fiddle Man
TTITLE3=The Covered Wagon Rolled Right Along
TTITLE4=It's My Lazy Day
TTITLE5=All Of Me
TTITLE6=Lost My Baby Blues
TTITLE7=Butter And Egg Man
TTITLE8=Bright Lights And Blond Haired Women
TTITLE9=Struttin' With Some BBQ
TTITLE10=Careless Hands
TTITLE11=Tried To Forget You
TTITLE12=Goodbye Liza Jane
TTITLE13=If Dreams Come True
TTITLE14=I Just Can't Take It Anymore
TTITLE15=I Laugh When I Think How I Cried Over You
TTITLE16=Laughter
EXTD=WR Records  WR009
EXTT0=
EXTT1=
EXTT2=
EXTT3=
EXTT4=
EXTT5=
EXTT6=
EXTT7=
EXTT8=
EXTT9=
EXTT10=
EXTT11=
EXTT12=
EXTT13=
EXTT14=
EXTT15=
EXTT16=
PLAYORDER=
